      <svg
        xmlns="http://www.w3.org/2000/svg"
        version="1.0"
        viewBox="0 0 4126.1 3678.9"
      >
        <path
          fill="#2D5F91"
          d="M1235.6 2492.5h521.8c121.2 0 219.6 98.4 219.6 219.6h-741.4v-219.6z"
        />
        <path
          fill="#D75E50"
          d="M1685.6 0H1977v698.5c0 163-132.3 295.3-295.3 295.3h-429.1V433.1c0-239 194-433.1 433-433.1z"
        />
        <linearGradient
          id="a"
          x1="2933.315"
          x2="2933.315"
          y1="3568.33"
          y2="0"
          gradientUnits="userSpaceOnUse"
        >
          <stop offset=".196" stop-color="#092d65" />
          <stop offset=".804" stop-color="#d75e50" />
        </linearGradient>
        <path
          fill="url(#a)"
          d="M2376.9 0h-636.4l9.1 731.9h51v-.2h500.7c578.8 0 1052.3 473.6 1052.3 1052.3 0 144.7-29.6 282.8-83 408.6-160.3 377.4-535.2 643.7-969.3 643.7h-500.7v-234.2h-51v966.1h627.3c962 0 1749.2-787.5 1749.2-1749.5v-69.3C4126.1 787.2 3338.9 0 2376.9 0z"
        />
        <path
          fill="#2D5F91"
          d="M393.4 3317.5c11.4 4.8 23.8 10.3 35.2 15 95.4 39.5 202.2 52.7 300.5 21 118-37.5 201.5-126.9 260-234.3 12.8 35.7 14.9 74.2 10.3 111.9-28.3 214.2-264.1 343.1-463 266.2-68.9-26.3-130.5-76-163-142.7-2-4.4-3.9-8.8-5.6-13.2l25.6-23.9z"
        />
        <path
          fill="#092D65"
          d="M1977 2712.1v856.1h-291.1c-239.1 0-433.3-194.2-433.3-433.3v-271.2s-421.1-1.1-641.6 0c-181.4 5.4-290.7 236.4-189.9 389.2 146.1 217.8 446.9 140.2 613-47.5 29 117.3-22.7 252.4-121.7 343-374.9 318-935.1-38.3-892-511.5 20.8-313.7 228.5-548.1 628.7-548.1 211.2 0 603.6 3.8 603.6 3.8v219.5H1977z"
        />
        <path
          fill="#2D5F91"
          d="M1977.2 2712.1H647.9c-215.5 0-330.4 55.2-412.4 207.7-106.4 197.9-65.9 440.6 150.9 564 248.9 141.7 555.1 37.6 697.6-219.5C864 4038.5-152.1 3610.6 19.4 2943 147.1 2446 655 2488.6 655 2488.6l1104.4 3.2c120.2.4 217.6 97.8 217.8 218v2.3z"
        />
        <path
          fill="#D75E50"
          d="M641.9 854.2h626.6v139.7H641.9c-38.5 0-69.8-31.3-69.8-69.8 0-38.7 31.3-70 69.8-69.9zM857.4 638.6H1484v139.7H857.4c-38.5 0-69.8-31.3-69.8-69.8 0-38.6 31.3-69.9 69.8-69.9zM1082.9 423.1h626.6v139.7h-626.6c-38.6 0-69.8-31.3-69.8-69.9 0-38.5 31.3-69.8 69.8-69.8z"
        />
        <path
          fill="#F2F2F2"
          d="M686.4 900.5H1731c12.9 0 23.4 10.5 23.4 23.5 0 12.9-10.5 23.5-23.4 23.5H686.4c-12.4 0-22.5-10.1-22.5-22.5v-1.9c-.1-12.5 10-22.6 22.5-22.6zM886.1 685h1021.3c13 0 23.4 10.5 23.4 23.5s-10.5 23.5-23.4 23.5H886.1c-13 0-23.5-10.5-23.5-23.5.1-13 10.5-23.5 23.5-23.5zM1093.2 469.5h1045.3c12.9 0 23.4 10.5 23.4 23.5 0 12.9-10.5 23.5-23.4 23.5H1093.2c-12.4 0-22.5-10.1-22.5-22.5v-2c-.1-12.4 10-22.5 22.5-22.5z"
        />
        <linearGradient
          id="b"
          x1="1874.492"
          x2="2758.632"
          y1="1362.847"
          y2="2553.727"
          gradientTransform="matrix(1 0 0 -1 0 3678)"
          gradientUnits="userSpaceOnUse"
        >
          <stop offset="0" stop-color="#092d65" />
          <stop offset="1" stop-color="#d75e50" />
        </linearGradient>
        <path
          fill="url(#b)"
          d="M2099.3 1166.9h251.2c317 0 574.4 257.4 574.4 574.4s-257.4 574.4-574.4 574.4h-251.2c-151.1 0-273.7-122.7-273.7-273.7v-601.3c0-151.1 122.6-273.8 273.7-273.8z"
        />
      </svg>